# xmcd
#
# Track frame offsets:
#	150
#	8977
#	19598
#	28677
#	42919
#	65877
#	77852
#	89598
#	110907
#	117771
#	133229
# Disc length: 1936 seconds
# Revision: 1
# Processed by: cddbd v1.5.2PL0 Copyright (c) Steve Scherf et al.
#
# Submitted via: libkcddb 0.31
#
DISCID=99078e0b
DTITLE=poxfil - who is on my sofa ?
DYEAR=2007
DGENRE=Alternative
TTITLE0=make believe
TTITLE1=handyman
TTITLE2=grosse carotte
TTITLE3=the light in me
TTITLE4=solid ground
TTITLE5=system dub
TTITLE6=noson
TTITLE7=the 4 days
TTITLE8=every time you try
TTITLE9=where my crow
TTITLE10=seasons
EXTD=free available on www.jamendo.com
EXTT0=
EXTT1=
EXTT2=
EXTT3=
EXTT4=
EXTT5=
EXTT6=
EXTT7=
EXTT8=
EXTT9=
EXTT10=
PLAYORDER=
